<svg version="1.1" viewBox="0 0 12 12" height="12px" width="12px" xmlns:xlink="http://www.w3.org/1999/xlink" xmlns="http://www.w3.org/2000/svg">
<g id="surface1">
<path d="M 8.773438 8.34375 L 8.773438 10.171875 C 8.773438 10.375 8.609375 10.539062 8.410156 10.539062 L 1.828125 10.539062 C 1.625 10.539062 1.460938 10.375 1.460938 10.171875 L 1.460938 3.589844 C 1.460938 3.390625 1.625 3.226562 1.828125 3.226562 L 3.65625 3.226562 C 4.058594 3.226562 4.386719 2.898438 4.386719 2.496094 C 4.386719 2.089844 4.058594 1.761719 3.65625 1.761719 L 1.097656 1.761719 C 0.492188 1.761719 0 2.253906 0 2.859375 L 0 10.902344 C 0 11.507812 0.492188 12 1.097656 12 L 9.140625 12 C 9.746094 12 10.238281 11.507812 10.238281 10.902344 L 10.238281 8.34375 C 10.238281 7.941406 9.910156 7.613281 9.503906 7.613281 C 9.101562 7.613281 8.773438 7.941406 8.773438 8.34375 Z M 8.773438 8.34375" style="stroke:none;fill-rule:nonzero;fill:rgb(8.627451%,8.627451%,8.235294%);fill-opacity:1;"></path>
<path d="M 6.582031 0.300781 L 10.96875 0.300781 C 11.371094 0.300781 11.699219 0.628906 11.699219 1.03125 C 11.699219 1.4375 11.371094 1.761719 10.96875 1.761719 L 6.582031 1.761719 C 6.175781 1.761719 5.851562 1.4375 5.851562 1.03125 C 5.851562 0.628906 6.175781 0.300781 6.582031 0.300781 Z M 6.582031 0.300781" style="stroke:none;fill-rule:nonzero;fill:rgb(8.627451%,8.627451%,8.235294%);fill-opacity:1;"></path>
<path d="M 11.699219 1.03125 L 11.699219 5.417969 C 11.699219 5.824219 11.371094 6.148438 10.96875 6.148438 C 10.5625 6.148438 10.238281 5.824219 10.238281 5.417969 L 10.238281 1.03125 C 10.238281 0.628906 10.5625 0.300781 10.96875 0.300781 C 11.371094 0.300781 11.699219 0.628906 11.699219 1.03125 Z M 11.699219 1.03125" style="stroke:none;fill-rule:nonzero;fill:rgb(8.627451%,8.627451%,8.235294%);fill-opacity:1;"></path>
<path d="M 3.136719 7.835938 L 10.460938 0.511719 C 10.742188 0.230469 11.203125 0.230469 11.488281 0.511719 C 11.769531 0.796875 11.769531 1.257812 11.488281 1.539062 L 4.164062 8.863281 C 3.878906 9.144531 3.421875 9.144531 3.136719 8.863281 C 2.855469 8.578125 2.855469 8.121094 3.136719 7.835938 Z M 3.136719 7.835938" style="stroke:none;fill-rule:nonzero;fill:rgb(8.627451%,8.627451%,8.235294%);fill-opacity:1;"></path>
</g>
</svg>
