<svg xmlns="http://www.w3.org/2000/svg" viewBox="0 0 32.822 32.822" height="800px" width="800px">
  <g transform="translate(0 0.822)" data-name="Lager 80" id="Lager_80">
    <path fill="#161615" d="M24,22v5a1,1,0,0,1-1,1H5a1,1,0,0,1-1-1V9A1,1,0,0,1,5,8h5a2,2,0,0,0,2-2h0a2,2,0,0,0-2-2H3A3,3,0,0,0,0,7V29a3,3,0,0,0,3,3H25a3,3,0,0,0,3-3V22a2,2,0,0,0-2-2h0A2,2,0,0,0,24,22Z" data-name="Path 89" id="Path_89"></path>
    <rect fill="#161615" transform="translate(16 0)" rx="2" height="4" width="16" data-name="Rectangle 40" id="Rectangle_40"></rect>
    <rect fill="#161615" transform="translate(32 0) rotate(90)" rx="2" height="4" width="16" data-name="Rectangle 41" id="Rectangle_41"></rect>
    <g data-name="Group 37" id="Group_37">
      <rect fill="#161615" transform="translate(7.178 22.014) rotate(-45)" rx="1.986" height="3.971" width="32.296" data-name="Rectangle 42" id="Rectangle_42"></rect>
    </g>
  </g>
</svg>