<svg version="1.1" viewBox="0 0 24 24" height="24px" width="24px" xmlns:xlink="http://www.w3.org/1999/xlink" xmlns="http://www.w3.org/2000/svg">
<g id="surface1">
<path d="M 17.550781 16.6875 L 17.550781 20.34375 C 17.550781 20.746094 17.222656 21.074219 16.816406 21.074219 L 3.65625 21.074219 C 3.253906 21.074219 2.925781 20.746094 2.925781 20.34375 L 2.925781 7.183594 C 2.925781 6.777344 3.253906 6.449219 3.65625 6.449219 L 7.3125 6.449219 C 8.121094 6.449219 8.773438 5.796875 8.773438 4.988281 C 8.773438 4.179688 8.121094 3.527344 7.3125 3.527344 L 2.195312 3.527344 C 0.980469 3.527344 0 4.507812 0 5.71875 L 0 21.804688 C 0 23.019531 0.980469 24 2.195312 24 L 18.28125 24 C 19.492188 24 20.472656 23.019531 20.472656 21.804688 L 20.472656 16.6875 C 20.472656 15.878906 19.820312 15.226562 19.011719 15.226562 C 18.203125 15.226562 17.550781 15.878906 17.550781 16.6875 Z M 17.550781 16.6875" style="stroke:none;fill-rule:nonzero;fill:rgb(8.627451%,8.627451%,8.235294%);fill-opacity:1;"></path>
<path d="M 13.160156 0.601562 L 21.9375 0.601562 C 22.746094 0.601562 23.398438 1.253906 23.398438 2.0625 C 23.398438 2.871094 22.746094 3.527344 21.9375 3.527344 L 13.160156 3.527344 C 12.355469 3.527344 11.699219 2.871094 11.699219 2.0625 C 11.699219 1.253906 12.355469 0.601562 13.160156 0.601562 Z M 13.160156 0.601562" style="stroke:none;fill-rule:nonzero;fill:rgb(8.627451%,8.627451%,8.235294%);fill-opacity:1;"></path>
<path d="M 23.398438 2.0625 L 23.398438 10.839844 C 23.398438 11.644531 22.746094 12.300781 21.9375 12.300781 C 21.128906 12.300781 20.472656 11.644531 20.472656 10.839844 L 20.472656 2.0625 C 20.472656 1.253906 21.128906 0.601562 21.9375 0.601562 C 22.746094 0.601562 23.398438 1.253906 23.398438 2.0625 Z M 23.398438 2.0625" style="stroke:none;fill-rule:nonzero;fill:rgb(8.627451%,8.627451%,8.235294%);fill-opacity:1;"></path>
<path d="M 6.277344 15.671875 L 20.921875 1.027344 C 21.488281 0.460938 22.40625 0.460938 22.972656 1.027344 C 23.539062 1.59375 23.539062 2.511719 22.972656 3.078125 L 8.328125 17.722656 C 7.761719 18.292969 6.84375 18.292969 6.273438 17.726562 C 5.707031 17.15625 5.707031 16.238281 6.277344 15.671875 Z M 6.277344 15.671875" style="stroke:none;fill-rule:nonzero;fill:rgb(8.627451%,8.627451%,8.235294%);fill-opacity:1;"></path>
</g>
</svg>
